<svg width="38" height="42" viewBox="0 0 38 42" fill="none" xmlns="http://www.w3.org/2000/svg">
<path d="M29.6403 15.1282L28.2859 16.0235C27.4594 14.7991 26.3805 13.8349 25.049 13.1309C23.7328 12.4116 22.3018 12.052 20.7561 12.052C18.2462 12.052 16.1035 12.9396 14.3282 14.7149C12.5529 16.4903 11.6652 18.6329 11.6652 21.1428C11.6652 23.6527 12.5529 25.7954 14.3282 27.5707C16.1035 29.346 18.2462 30.2337 20.7561 30.2337C22.3018 30.2337 23.7328 29.874 25.049 29.1547C26.3805 28.4354 27.4594 27.4635 28.2859 26.2392L29.6174 27.2034C28.6379 28.642 27.3676 29.7822 25.8066 30.6239C24.2455 31.4657 22.562 31.8865 20.7561 31.8865C19.3022 31.8865 17.9095 31.6034 16.578 31.0371C15.2618 30.4709 14.1216 29.7057 13.1574 28.7415C12.1933 27.7773 11.428 26.6371 10.8618 25.3209C10.2955 23.9894 10.0124 22.5967 10.0124 21.1428C10.0124 19.6889 10.2955 18.3038 10.8618 16.9877C11.428 15.6562 12.1933 14.5083 13.1574 13.5442C14.1216 12.58 15.2618 11.8147 16.578 11.2485C17.9095 10.6822 19.3022 10.3991 20.7561 10.3991C22.5773 10.3991 24.2685 10.8276 25.8295 11.6847C27.3906 12.5264 28.6608 13.6742 29.6403 15.1282ZM32.3722 13.2457L30.9948 14.141C29.8622 12.4881 28.393 11.1796 26.5871 10.2154C24.7965 9.23595 22.8528 8.74621 20.7561 8.74621C18.5063 8.74621 16.4326 9.30482 14.5348 10.422C12.6371 11.524 11.1296 13.0238 10.0124 14.9216C8.91045 16.8193 8.35949 18.8931 8.35949 21.1428C8.35949 23.3926 8.91045 25.4663 10.0124 27.3641C11.1296 29.2618 12.6371 30.7693 14.5348 31.8865C16.4326 32.9885 18.5063 33.5394 20.7561 33.5394C22.8528 33.5394 24.8041 33.0497 26.61 32.0702C28.416 31.0907 29.8852 29.7669 31.0177 28.0987L32.3722 29.0399C31.0866 30.9377 29.4184 32.4375 27.3676 33.5394C25.3321 34.6413 23.1283 35.1923 20.7561 35.1923C18.2156 35.1923 15.8663 34.5648 13.7084 33.3099C11.5505 32.0549 9.84402 30.3484 8.58905 28.1905C7.33409 26.0326 6.70661 23.6834 6.70661 21.1428C6.70661 18.6023 7.33409 16.253 8.58905 14.0951C9.84402 11.9372 11.5505 10.2307 13.7084 8.97577C15.8663 7.72081 18.2156 7.09333 20.7561 7.09333C23.1283 7.09333 25.3321 7.64429 27.3676 8.74621C29.4184 9.84813 31.0866 11.348 32.3722 13.2457ZM35.127 11.4092L33.7496 12.3045C32.311 10.1925 30.4438 8.52429 28.1481 7.29994C25.8678 6.06027 23.4038 5.44044 20.7561 5.44044C18.6288 5.44044 16.5933 5.85366 14.6496 6.68011C12.706 7.50655 11.0301 8.62377 9.6221 10.0318C8.2294 11.4245 7.11983 13.0927 6.29339 15.0363C5.46695 16.98 5.05373 19.0155 5.05373 21.1428C5.05373 23.2701 5.46695 25.3056 6.29339 27.2493C7.11983 29.193 8.2294 30.8688 9.6221 32.2768C11.0301 33.6695 12.706 34.7791 14.6496 35.6055C16.5933 36.432 18.6288 36.8452 20.7561 36.8452C23.4191 36.8452 25.8907 36.2253 28.1711 34.9857C30.4515 33.746 32.311 32.0702 33.7496 29.9582L35.0811 30.9453C33.4894 33.2716 31.4309 35.1158 28.9057 36.4779C26.3958 37.8247 23.6792 38.4981 20.7561 38.4981C17.6187 38.4981 14.7185 37.7252 12.0555 36.1794C9.39254 34.6184 7.28052 32.5064 5.71947 29.8434C4.17372 27.1804 3.40084 24.2802 3.40084 21.1428C3.40084 18.0054 4.17372 15.1052 5.71947 12.4422C7.28052 9.77926 9.39254 7.67489 12.0555 6.12914C14.7185 4.56809 17.6187 3.78756 20.7561 3.78756C23.6945 3.78756 26.4264 4.47626 28.9516 5.85366C31.4769 7.21576 33.5353 9.0676 35.127 11.4092ZM37.8359 9.52673L36.4585 10.422C34.7138 7.8662 32.4563 5.84601 29.6862 4.36148C26.9314 2.87695 23.9547 2.13468 20.7561 2.13468C18.1849 2.13468 15.7209 2.63973 13.364 3.64982C11.0225 4.64461 9.00227 5.9914 7.30348 7.6902C5.60469 9.38899 4.25024 11.4168 3.24015 13.7737C2.24536 16.1153 1.74796 18.5717 1.74796 21.1428C1.74796 23.714 2.24536 26.178 3.24015 28.5349C4.25024 30.8764 5.60469 32.8966 7.30348 34.5954C9.00227 36.2942 11.0225 37.6487 13.364 38.6588C15.7209 39.6535 18.1849 40.1509 20.7561 40.1509C23.9547 40.1509 26.9391 39.401 29.7092 37.9012C32.4793 36.4013 34.7367 34.3735 36.4814 31.8177L37.8129 32.8278C35.9152 35.5826 33.4664 37.7711 30.4668 39.3934C27.4671 41.0003 24.2302 41.8038 20.7561 41.8038C17.9554 41.8038 15.2771 41.2529 12.7213 40.1509C10.1807 39.0643 7.98453 37.6027 6.13269 35.7662C4.29616 33.9144 2.82693 31.7182 1.72501 29.1776C0.638391 26.6218 0.0950832 23.9435 0.0950832 21.1428C0.0950832 18.3421 0.638391 15.6715 1.72501 13.1309C2.82693 10.5751 4.29616 8.3789 6.13269 6.54237C7.98453 4.69053 10.1807 3.2213 12.7213 2.13468C15.2771 1.03276 17.9554 0.481802 20.7561 0.481802C24.2455 0.481802 27.4901 1.29294 30.4897 2.91521C33.4894 4.53748 35.9381 6.74132 37.8359 9.52673Z" fill="black"/>
</svg>
