<?xml version="1.0" encoding="utf-8"?>
<!-- Generator: Adobe Illustrator 26.0.1, SVG Export Plug-In . SVG Version: 6.00 Build 0)  -->
<svg version="1.1" id="Livello_1" xmlns="http://www.w3.org/2000/svg" xmlns:xlink="http://www.w3.org/1999/xlink" x="0px" y="0px"
	 width="378px" height="225px" viewBox="0 0 378 225" style="enable-background:new 0 0 378 225;" xml:space="preserve">
<style type="text/css">
	.st0{fill:none;stroke:#BBFCFF;stroke-width:0.5;stroke-miterlimit:10;}
</style>
<path class="st0" d="M41.7,224.8c-7.8,0-15.2-2.1-22.2-6.4c-7-4.5-12.3-11.3-15.8-20.4c-1.3-3.3-2.1-6.7-2.6-10.2
	c-0.5-3.8-0.8-7.4-0.8-10.9s0.6-5.3,1.9-5.3c1.5,0,2.3,1,2.3,3c0,11.8,2.9,20.7,8.7,26.8c6,6,13.4,9,22.2,9s17.2-2.5,25.3-7.5
	c8.3-5,16-11.4,23-19.2c11.6-12.6,21.4-25.3,29.4-38.1c8-13.1,15.3-26.4,21.9-40c6.8-13.8,13.6-28.1,20.4-43c4.3-9,9.5-17,15.8-23.7
	c6.5-6.8,14.3-11.4,23.4-13.9l0.4-0.4h-21c-8.8,0-18.1,0.4-27.9,1.1c-9.8,0.8-18.7,2.4-26.8,4.9c-7.8,2.5-13.4,6.3-17,11.3
	c-2.3,3.3-3.4,7-3.4,11.3s1.1,8.4,3.4,12.4s5.2,6.9,8.7,8.7c0.5,0.5,0.8,0.9,0.8,1.1c0,0.5-0.6,1.1-1.9,1.9c-1,0.5-2.1,0.6-3.4,0.4
	c-2-1.3-4.5-3.3-7.5-6c-3-3-5.8-6.2-8.3-9.4c-2.3-3.3-3.8-6-4.5-8.3c-1-3-1.5-6-1.5-9c0-6,2.1-10.9,6.4-14.7
	c4.5-3.8,10.3-6.7,17.3-8.7c7-2,14.6-3.4,22.6-4.1c8.3-1,16.2-1.5,23.7-1.5c7.8-0.3,14.5-0.4,20-0.4h40.7c0.5,0,0.8,0.1,0.8,0.4
	c0,0.8-0.9,1.9-2.6,3.4c-1.5,1.3-2.5,1.9-3,1.9c-6.3,1.3-10.9,4.6-13.9,10.2c-3,5.3-4.4,13.8-4.1,25.6c0,0,0,2.8,0,8.3
	c0.3,5.5,0.5,12.7,0.8,21.5s0.5,18.2,0.8,28.3s0.5,19.7,0.8,29s0.5,17.1,0.8,23.4v2.3l130.8-138c8.3-8.8,16.5-16.2,24.5-22.2
	c8.3-6.3,16.8-9,25.6-8.3c0.3,0,0.4,0.1,0.4,0.4c0.3,0,0.4,0,0.4,0c0,0.8-0.5,1.6-1.5,2.6s-2.1,1.6-3.4,1.9
	c-6.5-0.3-12.4,2.3-17.7,7.5c-5.3,5.3-10.2,11.6-14.7,18.8c-2.3,3.8-5.7,9.8-10.2,18.1c-4.5,8-9.7,17.6-15.5,28.6
	c-5.5,11.1-11.2,22.7-17,35.1s-11.2,24.4-16.2,36.2c-4.8,11.8-8.7,22.6-11.7,32.4c-3,9.6-4.5,17.3-4.5,23.4c0,7,2.4,10.6,7.2,10.6
	c2,0,4.1-0.5,6.4-1.5c3.3-1.3,6.9-3.1,10.9-5.7s7.7-5.4,10.9-8.7c6.5-6.3,12.3-12.7,17.3-19.2c5-6.8,8-10.7,9-11.7
	c0.8-1,1.4-1.5,1.9-1.5c1,0,1.5,0.8,1.5,2.3s-0.5,2.9-1.5,4.1c-2,2.5-5.4,6.9-10.2,13.2c-4.8,6-10.4,12.2-17,18.5
	c-6.3,6.3-13.1,11.1-20.4,14.3c-2.3,1-4.6,1.8-7.2,2.3c-2.5,0.8-5,1.1-7.5,1.1c-5.5,0-10.6-1.6-15.1-4.9c-4.3-3.5-6.4-9.3-6.4-17.3
	c0-7.8,1.8-16.6,5.3-26.4c3.8-10.1,7.9-19.7,12.4-29c4.8-9.6,8.7-17.6,11.7-24.1c3.3-6.8,7.4-15.5,12.4-26c5-10.6,10.8-21.2,17.3-32
	L195.5,179.2c-0.3,2-1.1,4-2.6,6c-1.5,1.8-3.9,3.3-7.2,4.5c-1.8,0.8-4.1,2.8-7.2,6c-3,3.3-5,5.5-6,6.8c0,0.3-0.4,0.4-1.1,0.4
	c-0.8,0-1.5-0.3-2.3-0.8s-1-0.9-0.8-1.1c6.5-8.3,9.9-19.7,10.2-34.3l0.4-9c0.5-10.6,0.9-21.6,1.1-33.2c0.3-11.8,0.4-22.7,0.4-32.8
	c0.3-10.3,0.4-18.6,0.4-24.9c0-6.5,0-9.8,0-9.8c0-6,0.9-11.3,2.6-15.8c1.8-4.5,3.9-8.4,6.4-11.7c-4.3,3.3-8.4,7.2-12.4,11.7
	s-7.4,9.5-10.2,15.1c-3.8,7.8-8,17.8-12.8,30.2c-4.8,12.3-10.3,25.4-16.6,39.2c-6,13.8-12.8,27.4-20.4,40.7
	c-7.3,13.1-15.5,24.4-24.5,33.9c-6.3,6.8-14.3,12.6-24.1,17.3C59.3,222.4,50.3,224.8,41.7,224.8z"/>
</svg>
